<?xml version="1.0" encoding="UTF-8" standalone="no"?>
<svg width="453px" height="209px" viewBox="0 0 453 209" version="1.1" xmlns="http://www.w3.org/2000/svg" xmlns:xlink="http://www.w3.org/1999/xlink">
    <!-- Generator: Sketch 3.7 (28169) - http://www.bohemiancoding.com/sketch -->
    <title>Shape</title>
    <desc>Created with Sketch.</desc>
    <defs></defs>
    <g id="Page-1" stroke="none" stroke-width="1" fill="none" fill-rule="evenodd">
        <polygon id="Shape" fill="#E8A600" points="35.84375 48.4257812 35.84375 47.4257812 35.34375 47.4257812 35.34375 46.9257812 34.84375 46.9257812 34.84375 46.4257812 34.34375 46.4257812 34.34375 45.9257812 33.84375 45.9257812 33.84375 44.9257812 33.34375 44.9257812 33.34375 44.4257812 32.84375 44.4257812 32.84375 43.4257812 32.34375 43.4257812 32.34375 42.9257812 31.84375 42.9257812 31.84375 41.9257812 31.34375 41.9257812 31.34375 41.4257812 30.84375 41.4257812 30.84375 40.9257812 30.34375 40.9257812 30.34375 39.9257812 29.84375 39.9257812 29.84375 39.4257812 29.34375 39.4257812 29.34375 38.9257812 28.84375 38.9257812 28.84375 37.9257812 28.34375 37.9257812 28.34375 36.9257812 27.84375 36.9257812 27.84375 36.4257812 27.34375 36.4257812 27.34375 35.9257812 26.84375 35.9257812 26.84375 34.9257812 26.34375 34.9257812 26.34375 33.9257812 25.84375 33.9257812 25.84375 33.4257812 25.34375 33.4257812 25.34375 32.9257812 24.84375 32.9257812 24.84375 31.9257812 24.34375 31.9257812 24.34375 30.9257812 23.84375 30.9257812 23.84375 30.4257812 23.34375 30.4257812 23.34375 29.9257813 22.84375 29.9257813 22.84375 28.9257812 22.34375 28.9257812 22.34375 27.9257812 21.84375 27.9257812 21.84375 26.9257813 21.34375 26.9257813 21.34375 26.4257812 20.84375 26.4257812 20.84375 25.4257812 20.34375 25.4257812 20.34375 24.9257812 19.84375 24.9257812 19.84375 23.9257812 19.34375 23.9257812 19.34375 22.9257812 18.84375 22.9257812 18.84375 21.9257812 18.34375 21.9257812 18.34375 20.9257812 17.84375 20.9257812 17.84375 20.4257812 17.34375 20.4257812 17.34375 19.4257812 16.84375 19.4257812 16.84375 18.4257812 16.34375 18.4257812 16.34375 17.4257812 15.84375 17.4257812 15.84375 16.4257812 15.34375 16.4257812 15.34375 15.4257813 14.84375 15.4257813 14.84375 14.4257812 14.34375 14.4257812 14.34375 12.9257812 13.84375 12.9257812 13.84375 11.9257812 13.34375 11.9257812 13.34375 10.4257812 12.84375 10.4257812 12.84375 9.42578125 12.34375 9.42578125 12.34375 7.42578125 11.84375 7.42578125 11.84375 5.42578125 11.34375 5.42578125 11.34375 1.42578125 11.84375 1.42578125 11.84375 0.92578125 14.84375 0.92578125 14.84375 1.42578125 16.34375 1.42578125 16.34375 1.92578125 17.84375 1.92578125 17.84375 2.42578125 18.84375 2.42578125 18.84375 2.92578125 19.84375 2.92578125 19.84375 3.42578125 20.84375 3.42578125 20.84375 3.92578125 21.84375 3.92578125 21.84375 4.42578125 22.84375 4.42578125 22.84375 4.92578125 23.84375 4.92578125 23.84375 5.42578125 24.84375 5.42578125 24.84375 5.92578125 25.84375 5.92578125 25.84375 6.42578125 26.84375 6.42578125 26.84375 6.92578125 27.84375 6.92578125 27.84375 7.42578125 29.34375 7.42578125 29.34375 7.92578125 30.34375 7.92578125 30.34375 8.42578125 31.34375 8.42578125 31.34375 8.92578125 32.34375 8.92578125 32.34375 9.42578125 33.84375 9.42578125 33.84375 9.92578125 34.84375 9.92578125 34.84375 10.4257812 35.84375 10.4257812 35.84375 10.9257812 37.34375 10.9257812 37.34375 11.4257812 38.34375 11.4257812 38.34375 11.9257812 39.84375 11.9257812 39.84375 12.4257812 40.84375 12.4257812 40.84375 12.9257812 42.34375 12.9257812 42.34375 13.4257812 43.84375 13.4257812 43.84375 13.9257813 45.34375 13.9257813 45.34375 14.4257812 46.34375 14.4257812 46.34375 14.9257812 47.84375 14.9257812 47.84375 15.4257813 49.34375 15.4257813 49.34375 15.9257812 50.84375 15.9257812 50.84375 16.4257812 52.34375 16.4257812 52.34375 16.9257812 54.34375 16.9257812 54.34375 17.4257812 55.84375 17.4257812 55.84375 17.9257812 57.34375 17.9257812 57.34375 18.4257812 59.34375 18.4257812 59.34375 18.9257812 60.84375 18.9257812 60.84375 19.4257812 62.84375 19.4257812 62.84375 19.9257812 64.34375 19.9257812 64.34375 20.4257812 66.34375 20.4257812 66.34375 20.9257812 68.34375 20.9257812 68.34375 21.4257812 70.34375 21.4257812 70.34375 21.9257812 72.34375 21.9257812 72.34375 22.4257812 74.34375 22.4257812 74.34375 22.9257812 76.84375 22.9257812 76.84375 23.4257812 78.84375 23.4257812 78.84375 23.9257812 81.34375 23.9257812 81.34375 24.4257812 83.84375 24.4257812 83.84375 24.9257812 86.34375 24.9257812 86.34375 25.4257812 88.84375 25.4257812 88.84375 25.9257812 91.34375 25.9257812 91.34375 26.4257812 94.34375 26.4257812 94.34375 26.9257813 97.34375 26.9257813 97.34375 27.4257812 99.84375 27.4257812 99.84375 27.9257812 102.84375 27.9257812 102.84375 28.4257813 105.84375 28.4257813 105.84375 28.9257812 108.84375 28.9257812 108.84375 29.4257812 111.84375 29.4257812 111.84375 29.9257813 115.34375 29.9257813 115.34375 30.4257812 118.34375 30.4257812 118.34375 30.9257812 121.34375 30.9257812 121.34375 31.4257813 124.84375 31.4257813 124.84375 31.9257812 127.84375 31.9257812 127.84375 32.4257812 131.34375 32.4257812 131.34375 32.9257812 134.84375 32.9257812 134.84375 33.4257812 138.34375 33.4257812 138.34375 33.9257812 141.84375 33.9257812 141.84375 34.4257812 145.34375 34.4257812 145.34375 34.9257812 149.34375 34.9257812 149.34375 35.4257812 152.84375 35.4257812 152.84375 35.9257812 156.84375 35.9257812 156.84375 36.4257812 160.34375 36.4257812 160.34375 36.9257812 163.84375 36.9257812 163.84375 37.4257812 166.34375 37.4257812 166.34375 37.9257812 168.84375 37.9257812 168.84375 38.4257812 171.34375 38.4257812 171.34375 38.9257812 173.34375 38.9257812 173.34375 39.4257812 175.34375 39.4257812 175.34375 39.9257812 177.34375 39.9257812 177.34375 40.4257812 179.34375 40.4257812 179.34375 40.9257812 180.84375 40.9257812 180.84375 41.4257812 182.84375 41.4257812 182.84375 41.9257812 184.34375 41.9257812 184.34375 42.4257812 185.84375 42.4257812 185.84375 42.9257812 187.34375 42.9257812 187.34375 43.4257812 188.84375 43.4257812 188.84375 43.9257812 190.34375 43.9257812 190.34375 44.4257812 191.84375 44.4257812 191.84375 44.9257812 192.84375 44.9257812 192.84375 45.4257812 194.34375 45.4257812 194.34375 45.9257812 195.34375 45.9257812 195.34375 46.4257812 196.84375 46.4257812 196.84375 46.9257812 197.84375 46.9257812 197.84375 47.4257812 199.34375 47.4257812 199.34375 47.9257812 200.34375 47.9257812 200.34375 48.4257812 201.34375 48.4257812 201.34375 48.9257812 202.34375 48.9257812 202.34375 49.4257812 203.84375 49.4257812 203.84375 49.9257812 204.84375 49.9257812 204.84375 50.4257812 205.84375 50.4257812 205.84375 50.9257812 206.84375 50.9257812 206.84375 51.4257812 207.84375 51.4257812 207.84375 51.9257812 208.84375 51.9257812 208.84375 52.4257812 209.84375 52.4257812 209.84375 52.9257813 210.84375 52.9257813 210.84375 53.4257812 211.34375 53.4257812 211.34375 53.9257812 212.34375 53.9257812 212.34375 54.4257813 213.34375 54.4257813 213.34375 54.9257812 214.34375 54.9257812 214.34375 55.4257812 215.34375 55.4257812 215.34375 55.9257813 215.84375 55.9257813 215.84375 56.4257812 216.84375 56.4257812 216.84375 56.9257812 217.84375 56.9257812 217.84375 57.4257813 218.34375 57.4257813 218.34375 57.9257812 219.34375 57.9257812 219.34375 58.4257812 219.84375 58.4257812 219.84375 58.9257813 220.84375 58.9257813 220.84375 59.4257812 221.84375 59.4257812 221.84375 59.9257812 222.34375 59.9257812 222.34375 60.4257813 223.34375 60.4257813 223.34375 60.9257812 223.84375 60.9257812 223.84375 61.4257812 224.84375 61.4257812 224.84375 61.9257813 225.34375 61.9257813 225.34375 62.4257812 225.84375 62.4257812 225.84375 62.9257812 226.84375 62.9257812 226.84375 63.4257813 227.34375 63.4257813 227.34375 63.9257812 228.34375 63.9257812 228.34375 64.4257812 228.84375 64.4257812 228.84375 64.9257812 229.34375 64.9257812 229.34375 65.4257812 230.34375 65.4257812 230.34375 65.9257812 230.84375 65.9257812 230.84375 66.4257812 231.34375 66.4257812 231.34375 66.9257812 232.34375 66.9257812 232.34375 67.4257812 232.84375 67.4257812 232.84375 67.9257812 233.34375 67.9257812 233.34375 68.4257812 233.84375 68.4257812 233.84375 68.9257812 234.84375 68.9257812 234.84375 69.4257812 235.34375 69.4257812 235.34375 69.9257812 235.84375 69.9257812 235.84375 70.4257812 236.34375 70.4257812 236.34375 70.9257812 236.84375 70.9257812 236.84375 71.4257812 237.34375 71.4257812 237.34375 71.9257812 238.34375 71.9257812 238.34375 72.4257812 238.84375 72.4257812 238.84375 72.9257812 239.34375 72.9257812 239.34375 73.4257812 239.84375 73.4257812 239.84375 73.9257812 240.34375 73.9257812 240.34375 74.4257812 240.84375 74.4257812 240.84375 74.9257812 241.34375 74.9257812 241.34375 75.4257812 241.84375 75.4257812 241.84375 75.9257812 242.34375 75.9257812 242.34375 76.4257812 242.84375 76.4257812 242.84375 76.9257812 243.34375 76.9257812 243.34375 77.4257812 243.84375 77.4257812 243.84375 77.9257812 244.34375 77.9257812 244.34375 78.4257812 244.84375 78.4257812 244.84375 78.9257812 245.34375 78.9257812 245.34375 79.4257812 245.84375 79.4257812 245.84375 79.9257812 246.34375 79.9257812 246.34375 80.4257812 246.84375 80.4257812 246.84375 80.9257812 247.34375 80.9257812 247.34375 81.4257812 247.84375 81.4257812 247.84375 81.9257812 248.34375 81.9257812 248.34375 82.4257812 248.84375 82.4257812 248.84375 82.9257812 249.34375 82.9257812 249.34375 83.4257812 249.84375 83.4257812 249.84375 84.4257812 250.34375 84.4257812 250.34375 84.9257812 250.84375 84.9257812 250.84375 85.4257812 251.34375 85.4257812 251.34375 85.9257812 251.84375 85.9257812 251.84375 86.4257812 252.34375 86.4257812 252.34375 86.9257812 252.84375 86.9257812 252.84375 87.9257812 253.34375 87.9257812 253.34375 88.4257812 253.84375 88.4257812 253.84375 88.9257812 254.34375 88.9257812 254.34375 89.9257812 254.84375 89.9257812 254.84375 90.4257812 255.34375 90.4257812 255.34375 90.9257812 255.84375 90.9257812 255.84375 91.9257812 256.34375 91.9257812 256.34375 92.4257812 256.84375 92.4257812 256.84375 93.4257812 257.34375 93.4257812 257.34375 93.9257812 257.84375 93.9257812 257.84375 94.4257812 258.34375 94.4257812 258.34375 94.9257812 258.84375 94.9257812 258.84375 95.9257812 259.34375 95.9257812 259.34375 96.9257812 259.84375 96.9257812 259.84375 97.9257812 260.34375 97.9257812 260.34375 98.4257812 260.84375 98.4257812 260.84375 99.4257812 261.34375 99.4257812 261.34375 99.9257812 261.84375 99.9257812 261.84375 100.925781 262.34375 100.925781 262.34375 101.925781 262.84375 101.925781 262.84375 102.925781 263.34375 102.925781 263.34375 103.925781 263.84375 103.925781 263.84375 104.425781 266.84375 104.425781 266.84375 104.925781 270.84375 104.925781 270.84375 105.425781 285.34375 105.425781 285.34375 104.925781 289.84375 104.925781 289.84375 104.425781 293.34375 104.425781 293.34375 103.925781 296.34375 103.925781 296.34375 103.425781 298.84375 103.425781 298.84375 102.925781 300.84375 102.925781 300.84375 102.425781 303.34375 102.425781 303.34375 101.925781 305.34375 101.925781 305.34375 101.425781 306.84375 101.425781 306.84375 100.925781 308.84375 100.925781 308.84375 100.425781 310.84375 100.425781 310.84375 99.9257812 312.34375 99.9257812 312.34375 99.4257812 313.84375 99.4257812 313.84375 98.9257812 315.34375 98.9257812 315.34375 98.4257812 317.34375 98.4257812 317.34375 97.9257812 318.84375 97.9257812 318.84375 97.4257812 320.34375 97.4257812 320.34375 96.9257812 321.84375 96.9257812 321.84375 96.4257812 322.84375 96.4257812 322.84375 95.9257812 324.34375 95.9257812 324.34375 95.4257812 325.84375 95.4257812 325.84375 94.9257812 327.34375 94.9257812 327.34375 94.4257812 328.34375 94.4257812 328.34375 93.9257812 329.84375 93.9257812 329.84375 93.4257812 331.34375 93.4257812 331.34375 92.9257812 332.34375 92.9257812 332.34375 92.4257812 333.84375 92.4257812 333.84375 91.9257812 335.34375 91.9257812 335.34375 91.4257812 336.34375 91.4257812 336.34375 90.9257812 337.84375 90.9257812 337.84375 90.4257812 338.84375 90.4257812 338.84375 89.9257812 340.34375 89.9257812 340.34375 89.4257812 341.34375 89.4257812 341.34375 88.9257812 342.84375 88.9257812 342.84375 88.4257812 343.84375 88.4257812 343.84375 87.9257812 345.34375 87.9257812 345.34375 87.4257812 346.34375 87.4257812 346.34375 86.9257812 347.84375 86.9257812 347.84375 86.4257812 348.84375 86.4257812 348.84375 85.9257812 349.84375 85.9257812 349.84375 85.4257812 351.34375 85.4257812 351.34375 84.9257812 352.34375 84.9257812 352.34375 84.4257812 353.84375 84.4257812 353.84375 83.9257812 354.84375 83.9257812 354.84375 83.4257812 356.34375 83.4257812 356.34375 82.9257812 357.34375 82.9257812 357.34375 82.4257812 358.84375 82.4257812 358.84375 81.9257812 359.84375 81.9257812 359.84375 81.4257812 361.34375 81.4257812 361.34375 80.9257812 362.34375 80.9257812 362.34375 80.4257812 363.84375 80.4257812 363.84375 79.9257812 365.34375 79.9257812 365.34375 79.4257812 366.34375 79.4257812 366.34375 78.9257812 367.84375 78.9257812 367.84375 78.4257812 369.34375 78.4257812 369.34375 77.9257812 370.34375 77.9257812 370.34375 77.4257812 371.84375 77.4257812 371.84375 76.9257812 373.34375 76.9257812 373.34375 76.4257812 374.84375 76.4257812 374.84375 75.9257812 376.34375 75.9257812 376.34375 75.4257812 377.84375 75.4257812 377.84375 74.9257812 379.34375 74.9257812 379.34375 74.4257812 381.34375 74.4257812 381.34375 73.9257812 383.34375 73.9257812 383.34375 73.4257812 384.84375 73.4257812 384.84375 72.9257812 387.34375 72.9257812 387.34375 72.4257812 389.84375 72.4257812 389.84375 71.9257812 392.84375 71.9257812 392.84375 71.4257812 404.84375 71.4257812 404.84375 71.9257812 407.84375 71.9257812 407.84375 72.4257812 409.84375 72.4257812 409.84375 72.9257812 411.34375 72.9257812 411.34375 73.4257812 412.84375 73.4257812 412.84375 73.9257812 413.84375 73.9257812 413.84375 74.4257812 414.84375 74.4257812 414.84375 74.9257812 416.34375 74.9257812 416.34375 75.4257812 416.84375 75.4257812 416.84375 75.9257812 417.84375 75.9257812 417.84375 76.4257812 418.84375 76.4257812 418.84375 76.9257812 419.34375 76.9257812 419.34375 77.4257812 420.34375 77.4257812 420.34375 77.9257812 420.84375 77.9257812 420.84375 78.4257812 421.34375 78.4257812 421.34375 78.9257812 421.84375 78.9257812 421.84375 79.4257812 422.34375 79.4257812 422.34375 79.9257812 422.84375 79.9257812 422.84375 80.4257812 423.34375 80.4257812 423.34375 80.9257812 423.84375 80.9257812 423.84375 81.9257812 424.34375 81.9257812 424.34375 82.4257812 424.84375 82.4257812 424.84375 83.4257812 425.34375 83.4257812 425.34375 84.4257812 425.84375 84.4257812 425.84375 85.9257812 426.34375 85.9257812 426.34375 86.9257812 426.84375 86.9257812 426.84375 87.4257812 428.84375 87.4257812 428.84375 87.9257812 430.34375 87.9257812 430.34375 88.4257812 432.34375 88.4257812 432.34375 88.9257812 434.34375 88.9257812 434.34375 89.4257812 436.34375 89.4257812 436.34375 89.9257812 438.34375 89.9257812 438.34375 90.4257812 440.34375 90.4257812 440.34375 90.9257812 441.84375 90.9257812 441.84375 91.4257812 443.84375 91.4257812 443.84375 91.9257812 445.34375 91.9257812 445.34375 92.4257812 447.34375 92.4257812 447.34375 92.9257812 448.84375 92.9257812 448.84375 93.4257812 450.34375 93.4257812 450.34375 93.9257812 451.84375 93.9257812 451.84375 94.4257812 452.34375 94.4257812 452.34375 94.9257812 452.84375 94.9257812 452.84375 96.9257812 451.34375 96.9257812 451.34375 97.4257812 449.34375 97.4257812 449.34375 97.9257812 446.34375 97.9257812 446.34375 98.4257812 442.34375 98.4257812 442.34375 98.9257812 437.34375 98.9257812 437.34375 99.4257812 431.84375 99.4257812 431.84375 99.9257812 426.34375 99.9257812 426.34375 100.425781 420.84375 100.425781 420.84375 100.925781 415.84375 100.925781 415.84375 101.425781 410.84375 101.425781 410.84375 101.925781 406.34375 101.925781 406.34375 102.425781 402.34375 102.425781 402.34375 102.925781 398.34375 102.925781 398.34375 103.425781 394.84375 103.425781 394.84375 103.925781 391.34375 103.925781 391.34375 104.425781 387.84375 104.425781 387.84375 104.925781 384.84375 104.925781 384.84375 105.425781 381.84375 105.425781 381.84375 105.925781 378.84375 105.925781 378.84375 106.425781 376.34375 106.425781 376.34375 106.925781 373.34375 106.925781 373.34375 107.425781 370.84375 107.425781 370.84375 107.925781 368.34375 107.925781 368.34375 108.425781 365.84375 108.425781 365.84375 108.925781 363.84375 108.925781 363.84375 109.425781 361.34375 109.425781 361.34375 109.925781 359.34375 109.925781 359.34375 110.425781 357.34375 110.425781 357.34375 110.925781 355.34375 110.925781 355.34375 111.425781 353.34375 111.425781 353.34375 111.925781 351.34375 111.925781 351.34375 112.425781 349.34375 112.425781 349.34375 112.925781 347.34375 112.925781 347.34375 113.425781 345.34375 113.425781 345.34375 113.925781 343.84375 113.925781 343.84375 114.425781 341.84375 114.425781 341.84375 114.925781 340.34375 114.925781 340.34375 115.425781 338.84375 115.425781 338.84375 115.925781 336.84375 115.925781 336.84375 116.425781 335.34375 116.425781 335.34375 116.925781 333.84375 116.925781 333.84375 117.425781 332.34375 117.425781 332.34375 117.925781 330.84375 117.925781 330.84375 118.425781 329.34375 118.425781 329.34375 118.925781 327.84375 118.925781 327.84375 119.425781 326.34375 119.425781 326.34375 119.925781 325.34375 119.925781 325.34375 120.425781 323.84375 120.425781 323.84375 120.925781 322.34375 120.925781 322.34375 121.425781 321.34375 121.425781 321.34375 121.925781 319.84375 121.925781 319.84375 122.425781 318.34375 122.425781 318.34375 122.925781 317.34375 122.925781 317.34375 123.425781 315.84375 123.425781 315.84375 123.925781 314.84375 123.925781 314.84375 124.425781 313.84375 124.425781 313.84375 124.925781 312.34375 124.925781 312.34375 125.425781 311.34375 125.425781 311.34375 125.925781 310.34375 125.925781 310.34375 126.425781 308.84375 126.425781 308.84375 126.925781 307.84375 126.925781 307.84375 127.425781 306.84375 127.425781 306.84375 127.925781 305.84375 127.925781 305.84375 128.425781 304.34375 128.425781 304.34375 128.925781 303.34375 128.925781 303.34375 129.425781 302.34375 129.425781 302.34375 129.925781 301.34375 129.925781 301.34375 130.425781 300.34375 130.425781 300.34375 130.925781 299.34375 130.925781 299.34375 131.425781 298.34375 131.425781 298.34375 131.925781 297.34375 131.925781 297.34375 132.425781 296.34375 132.425781 296.34375 132.925781 295.34375 132.925781 295.34375 133.425781 294.84375 133.425781 294.84375 133.925781 293.84375 133.925781 293.84375 134.425781 292.84375 134.425781 292.84375 134.925781 291.84375 134.925781 291.84375 135.425781 290.84375 135.425781 290.84375 135.925781 289.84375 135.925781 289.84375 136.425781 289.34375 136.425781 289.34375 136.925781 288.34375 136.925781 288.34375 137.425781 287.34375 137.425781 287.34375 137.925781 286.34375 137.925781 286.34375 138.425781 285.84375 138.425781 285.84375 138.925781 284.84375 138.925781 284.84375 139.425781 283.84375 139.425781 283.84375 139.925781 283.34375 139.925781 283.34375 140.425781 282.34375 140.425781 282.34375 140.925781 281.84375 140.925781 281.84375 141.425781 280.84375 141.425781 280.84375 141.925781 279.84375 141.925781 279.84375 142.425781 279.34375 142.425781 279.34375 142.925781 278.34375 142.925781 278.34375 143.425781 277.84375 143.425781 277.84375 143.925781 276.84375 143.925781 276.84375 144.425781 276.34375 144.425781 276.34375 144.925781 275.34375 144.925781 275.34375 145.425781 274.84375 145.425781 274.84375 145.925781 273.84375 145.925781 273.84375 146.425781 272.84375 146.425781 272.84375 146.925781 272.34375 146.925781 272.34375 147.425781 271.34375 147.425781 271.34375 147.925781 270.84375 147.925781 270.84375 148.425781 269.84375 148.425781 269.84375 148.925781 269.34375 148.925781 269.34375 149.425781 268.84375 149.425781 268.84375 149.925781 267.84375 149.925781 267.84375 150.425781 267.34375 150.425781 267.34375 150.925781 266.34375 150.925781 266.34375 151.425781 265.84375 151.425781 265.84375 151.925781 264.84375 151.925781 264.84375 152.425781 264.34375 152.425781 264.34375 152.925781 263.34375 152.925781 263.34375 153.425781 262.84375 153.425781 262.84375 153.925781 261.84375 153.925781 261.84375 154.425781 261.34375 154.425781 261.34375 154.925781 260.34375 154.925781 260.34375 155.425781 259.84375 155.425781 259.84375 155.925781 258.84375 155.925781 258.84375 156.425781 258.34375 156.425781 258.34375 156.925781 257.34375 156.925781 257.34375 157.425781 256.84375 157.425781 256.84375 157.925781 255.84375 157.925781 255.84375 158.425781 255.34375 158.425781 255.34375 158.925781 254.34375 158.925781 254.34375 159.425781 253.84375 159.425781 253.84375 159.925781 252.84375 159.925781 252.84375 160.425781 252.34375 160.425781 252.34375 160.925781 251.34375 160.925781 251.34375 161.425781 250.84375 161.425781 250.84375 161.925781 249.84375 161.925781 249.84375 162.425781 249.34375 162.425781 249.34375 162.925781 248.34375 162.925781 248.34375 163.425781 247.34375 163.425781 247.34375 163.925781 246.84375 163.925781 246.84375 164.425781 245.84375 164.425781 245.84375 164.925781 244.84375 164.925781 244.84375 165.425781 244.34375 165.425781 244.34375 165.925781 243.34375 165.925781 243.34375 166.425781 242.84375 166.425781 242.84375 166.925781 241.84375 166.925781 241.84375 167.425781 240.84375 167.425781 240.84375 167.925781 239.84375 167.925781 239.84375 168.425781 239.34375 168.425781 239.34375 168.925781 238.34375 168.925781 238.34375 169.425781 237.34375 169.425781 237.34375 169.925781 236.34375 169.925781 236.34375 170.425781 235.34375 170.425781 235.34375 170.925781 234.84375 170.925781 234.84375 171.425781 233.84375 171.425781 233.84375 171.925781 232.84375 171.925781 232.84375 172.425781 231.84375 172.425781 231.84375 172.925781 230.84375 172.925781 230.84375 173.425781 229.84375 173.425781 229.84375 173.925781 228.84375 173.925781 228.84375 174.425781 227.84375 174.425781 227.84375 174.925781 226.84375 174.925781 226.84375 175.425781 225.84375 175.425781 225.84375 175.925781 224.84375 175.925781 224.84375 176.425781 223.84375 176.425781 223.84375 176.925781 222.84375 176.925781 222.84375 177.425781 221.34375 177.425781 221.34375 177.925781 220.34375 177.925781 220.34375 178.425781 219.34375 178.425781 219.34375 178.925781 217.84375 178.925781 217.84375 179.425781 216.84375 179.425781 216.84375 179.925781 215.84375 179.925781 215.84375 180.425781 214.34375 180.425781 214.34375 180.925781 213.34375 180.925781 213.34375 181.425781 211.84375 181.425781 211.84375 181.925781 210.84375 181.925781 210.84375 182.425781 209.34375 182.425781 209.34375 182.925781 207.84375 182.925781 207.84375 183.425781 206.84375 183.425781 206.84375 183.925781 205.34375 183.925781 205.34375 184.425781 203.84375 184.425781 203.84375 184.925781 202.34375 184.925781 202.34375 185.425781 200.84375 185.425781 200.84375 185.925781 199.34375 185.925781 199.34375 186.425781 197.84375 186.425781 197.84375 186.925781 196.34375 186.925781 196.34375 187.425781 194.84375 187.425781 194.84375 187.925781 192.84375 187.925781 192.84375 188.425781 191.34375 188.425781 191.34375 188.925781 189.84375 188.925781 189.84375 189.425781 187.84375 189.425781 187.84375 189.925781 185.84375 189.925781 185.84375 190.425781 184.34375 190.425781 184.34375 190.925781 182.34375 190.925781 182.34375 191.425781 180.34375 191.425781 180.34375 191.925781 178.34375 191.925781 178.34375 192.425781 176.34375 192.425781 176.34375 192.925781 174.34375 192.925781 174.34375 193.425781 171.84375 193.425781 171.84375 193.925781 169.84375 193.925781 169.84375 194.425781 167.34375 194.425781 167.34375 194.925781 165.34375 194.925781 165.34375 195.425781 162.84375 195.425781 162.84375 195.925781 160.34375 195.925781 160.34375 196.425781 158.34375 196.425781 158.34375 196.925781 155.84375 196.925781 155.84375 197.425781 152.84375 197.425781 152.84375 197.925781 150.34375 197.925781 150.34375 198.425781 147.84375 198.425781 147.84375 198.925781 144.84375 198.925781 144.84375 199.425781 141.84375 199.425781 141.84375 199.925781 138.84375 199.925781 138.84375 200.425781 135.84375 200.425781 135.84375 200.925781 132.84375 200.925781 132.84375 201.425781 129.34375 201.425781 129.34375 201.925781 125.84375 201.925781 125.84375 202.425781 122.34375 202.425781 122.34375 202.925781 118.34375 202.925781 118.34375 203.425781 114.34375 203.425781 114.34375 203.925781 110.34375 203.925781 110.34375 204.425781 105.84375 204.425781 105.84375 204.925781 100.84375 204.925781 100.84375 205.425781 95.34375 205.425781 95.34375 205.925781 89.84375 205.925781 89.84375 206.425781 83.34375 206.425781 83.34375 206.925781 75.84375 206.925781 75.84375 207.425781 66.84375 207.425781 66.84375 207.925781 54.84375 207.925781 54.84375 208.425781 6.34375 208.425781 6.34375 207.925781 3.34375 207.925781 3.34375 207.425781 1.84375 207.425781 1.84375 206.925781 0.84375 206.925781 0.84375 205.925781 1.34375 205.925781 1.34375 205.425781 1.84375 205.425781 1.84375 204.925781 3.34375 204.925781 3.34375 204.425781 4.84375 204.425781 4.84375 203.925781 7.34375 203.925781 7.34375 203.425781 9.34375 203.425781 9.34375 202.925781 11.34375 202.925781 11.34375 202.425781 13.34375 202.425781 13.34375 201.925781 15.34375 201.925781 15.34375 201.425781 16.84375 201.425781 16.84375 200.925781 18.84375 200.925781 18.84375 200.425781 20.84375 200.425781 20.84375 199.925781 22.34375 199.925781 22.34375 199.425781 23.84375 199.425781 23.84375 198.925781 25.84375 198.925781 25.84375 198.425781 27.34375 198.425781 27.34375 197.925781 28.84375 197.925781 28.84375 197.425781 30.34375 197.425781 30.34375 196.925781 31.84375 196.925781 31.84375 196.425781 33.34375 196.425781 33.34375 195.925781 34.84375 195.925781 34.84375 195.425781 36.34375 195.425781 36.34375 194.925781 37.84375 194.925781 37.84375 194.425781 39.34375 194.425781 39.34375 193.925781 40.34375 193.925781 40.34375 193.425781 41.84375 193.425781 41.84375 192.925781 43.34375 192.925781 43.34375 192.425781 44.84375 192.425781 44.84375 191.925781 45.84375 191.925781 45.84375 191.425781 47.34375 191.425781 47.34375 190.925781 48.34375 190.925781 48.34375 190.425781 49.84375 190.425781 49.84375 189.925781 50.84375 189.925781 50.84375 189.425781 52.34375 189.425781 52.34375 188.925781 53.34375 188.925781 53.34375 188.425781 54.84375 188.425781 54.84375 187.925781 55.84375 187.925781 55.84375 187.425781 57.34375 187.425781 57.34375 186.925781 58.34375 186.925781 58.34375 186.425781 59.34375 186.425781 59.34375 185.925781 60.84375 185.925781 60.84375 185.425781 61.84375 185.425781 61.84375 184.925781 63.34375 184.925781 63.34375 184.425781 64.34375 184.425781 64.34375 183.925781 65.34375 183.925781 65.34375 183.425781 66.34375 183.425781 66.34375 182.925781 67.84375 182.925781 67.84375 182.425781 68.84375 182.425781 68.84375 181.925781 69.84375 181.925781 69.84375 181.425781 71.34375 181.425781 71.34375 180.925781 72.34375 180.925781 72.34375 180.425781 73.34375 180.425781 73.34375 179.925781 74.34375 179.925781 74.34375 179.425781 75.84375 179.425781 75.84375 178.925781 76.84375 178.925781 76.84375 178.425781 77.84375 178.425781 77.84375 177.925781 78.84375 177.925781 78.84375 177.425781 79.84375 177.425781 79.84375 176.925781 81.34375 176.925781 81.34375 176.425781 82.34375 176.425781 82.34375 175.925781 83.34375 175.925781 83.34375 175.425781 84.34375 175.425781 84.34375 174.925781 85.34375 174.925781 85.34375 174.425781 86.34375 174.425781 86.34375 173.925781 87.34375 173.925781 87.34375 173.425781 88.34375 173.425781 88.34375 172.925781 89.34375 172.925781 89.34375 172.425781 90.34375 172.425781 90.34375 171.925781 91.34375 171.925781 91.34375 171.425781 92.34375 171.425781 92.34375 170.925781 93.34375 170.925781 93.34375 170.425781 94.34375 170.425781 94.34375 169.925781 95.34375 169.925781 95.34375 169.425781 96.34375 169.425781 96.34375 168.925781 97.34375 168.925781 97.34375 168.425781 97.84375 168.425781 97.84375 167.925781 98.84375 167.925781 98.84375 167.425781 99.84375 167.425781 99.84375 166.925781 100.84375 166.925781 100.84375 166.425781 101.34375 166.425781 101.34375 165.925781 102.34375 165.925781 102.34375 165.425781 103.34375 165.425781 103.34375 164.925781 103.84375 164.925781 103.84375 164.425781 104.84375 164.425781 104.84375 163.925781 105.34375 163.925781 105.34375 163.425781 106.34375 163.425781 106.34375 162.925781 106.84375 162.925781 106.84375 162.425781 107.34375 162.425781 107.34375 161.925781 108.34375 161.925781 108.34375 161.425781 108.84375 161.425781 108.84375 160.925781 109.34375 160.925781 109.34375 160.425781 110.34375 160.425781 110.34375 159.925781 110.84375 159.925781 110.84375 159.425781 111.34375 159.425781 111.34375 158.925781 111.84375 158.925781 111.84375 158.425781 112.34375 158.425781 112.34375 157.925781 112.84375 157.925781 112.84375 157.425781 113.34375 157.425781 113.34375 156.925781 113.84375 156.925781 113.84375 155.925781 114.34375 155.925781 114.34375 155.425781 114.84375 155.425781 114.84375 154.925781 115.34375 154.925781 115.34375 153.925781 115.84375 153.925781 115.84375 152.425781 116.34375 152.425781 116.34375 148.925781 115.84375 148.925781 115.84375 146.925781 115.34375 146.925781 115.34375 145.425781 114.84375 145.425781 114.84375 143.925781 114.34375 143.925781 114.34375 142.925781 113.84375 142.925781 113.84375 141.925781 113.34375 141.925781 113.34375 140.925781 112.84375 140.925781 112.84375 139.925781 112.34375 139.925781 112.34375 138.925781 111.84375 138.925781 111.84375 138.425781 111.34375 138.425781 111.34375 137.425781 110.84375 137.425781 110.84375 136.425781 110.34375 136.425781 110.34375 135.925781 109.84375 135.925781 109.84375 134.925781 109.34375 134.925781 109.34375 134.425781 108.84375 134.425781 108.84375 133.425781 108.34375 133.425781 108.34375 132.925781 107.84375 132.925781 107.84375 131.925781 107.34375 131.925781 107.34375 131.425781 106.84375 131.425781 106.84375 130.425781 106.34375 130.425781 106.34375 129.925781 105.84375 129.925781 105.84375 129.425781 105.34375 129.425781 105.34375 128.925781 104.84375 128.925781 104.84375 127.925781 104.34375 127.925781 104.34375 127.425781 103.84375 127.425781 103.84375 126.425781 103.34375 126.425781 103.34375 125.925781 102.84375 125.925781 102.84375 125.425781 102.34375 125.425781 102.34375 124.925781 101.84375 124.925781 101.84375 123.925781 101.34375 123.925781 101.34375 123.425781 100.84375 123.425781 100.84375 122.925781 100.34375 122.925781 100.34375 121.925781 99.84375 121.925781 99.84375 121.425781 99.34375 121.425781 99.34375 120.925781 98.84375 120.925781 98.84375 120.425781 98.34375 120.425781 98.34375 119.925781 97.84375 119.925781 97.84375 118.925781 97.34375 118.925781 97.34375 118.425781 96.84375 118.425781 96.84375 117.925781 96.34375 117.925781 96.34375 117.425781 95.84375 117.425781 95.84375 116.925781 95.34375 116.925781 95.34375 115.925781 94.84375 115.925781 94.84375 115.425781 94.34375 115.425781 94.34375 114.925781 93.84375 114.925781 93.84375 114.425781 93.34375 114.425781 93.34375 113.925781 92.84375 113.925781 92.84375 113.425781 92.34375 113.425781 92.34375 112.925781 91.84375 112.925781 91.84375 111.925781 91.34375 111.925781 91.34375 111.425781 90.84375 111.425781 90.84375 110.925781 90.34375 110.925781 90.34375 110.425781 89.84375 110.425781 89.84375 109.925781 89.34375 109.925781 89.34375 109.425781 88.84375 109.425781 88.84375 108.925781 88.34375 108.925781 88.34375 108.425781 87.84375 108.425781 87.84375 107.425781 87.34375 107.425781 87.34375 106.925781 86.84375 106.925781 86.84375 106.425781 86.34375 106.425781 86.34375 105.925781 85.84375 105.925781 85.84375 105.425781 85.34375 105.425781 85.34375 104.925781 84.84375 104.925781 84.84375 104.425781 84.34375 104.425781 84.34375 103.925781 83.84375 103.925781 83.84375 103.425781 83.34375 103.425781 83.34375 102.925781 82.84375 102.925781 82.84375 101.925781 82.34375 101.925781 82.34375 101.425781 81.84375 101.425781 81.84375 100.925781 81.34375 100.925781 81.34375 100.425781 80.84375 100.425781 80.84375 99.9257812 80.34375 99.9257812 80.34375 99.4257812 79.84375 99.4257812 79.84375 98.9257812 79.34375 98.9257812 79.34375 98.4257812 78.84375 98.4257812 78.84375 97.9257812 78.34375 97.9257812 78.34375 97.4257812 77.84375 97.4257812 77.84375 96.9257812 77.34375 96.9257812 77.34375 95.9257812 76.84375 95.9257812 76.84375 95.4257812 76.34375 95.4257812 76.34375 94.9257812 75.84375 94.9257812 75.84375 94.4257812 75.34375 94.4257812 75.34375 93.9257812 74.84375 93.9257812 74.84375 93.4257812 74.34375 93.4257812 74.34375 92.9257812 73.84375 92.9257812 73.84375 92.4257812 73.34375 92.4257812 73.34375 91.9257812 72.84375 91.9257812 72.84375 91.4257812 72.34375 91.4257812 72.34375 90.9257812 71.84375 90.9257812 71.84375 90.4257812 71.34375 90.4257812 71.34375 89.9257812 70.84375 89.9257812 70.84375 88.9257812 70.34375 88.9257812 70.34375 88.4257812 69.84375 88.4257812 69.84375 87.9257812 69.34375 87.9257812 69.34375 87.4257812 68.84375 87.4257812 68.84375 86.9257812 68.34375 86.9257812 68.34375 86.4257812 67.84375 86.4257812 67.84375 85.9257812 67.34375 85.9257812 67.34375 85.4257812 66.84375 85.4257812 66.84375 84.9257812 66.34375 84.9257812 66.34375 84.4257812 65.84375 84.4257812 65.84375 83.9257812 65.34375 83.9257812 65.34375 82.9257812 64.84375 82.9257812 64.84375 82.4257812 64.34375 82.4257812 64.34375 81.9257812 63.84375 81.9257812 63.84375 81.4257812 63.34375 81.4257812 63.34375 80.9257812 62.84375 80.9257812 62.84375 80.4257812 62.34375 80.4257812 62.34375 79.9257812 61.84375 79.9257812 61.84375 79.4257812 61.34375 79.4257812 61.34375 78.9257812 60.84375 78.9257812 60.84375 77.9257812 60.34375 77.9257812 60.34375 77.4257812 59.84375 77.4257812 59.84375 76.9257812 59.34375 76.9257812 59.34375 76.4257812 58.84375 76.4257812 58.84375 75.9257812 58.34375 75.9257812 58.34375 75.4257812 57.84375 75.4257812 57.84375 74.9257812 57.34375 74.9257812 57.34375 73.9257812 56.84375 73.9257812 56.84375 73.4257812 56.34375 73.4257812 56.34375 72.9257812 55.84375 72.9257812 55.84375 72.4257812 55.34375 72.4257812 55.34375 71.9257812 54.84375 71.9257812 54.84375 71.4257812 54.34375 71.4257812 54.34375 70.9257812 53.84375 70.9257812 53.84375 69.9257812 53.34375 69.9257812 53.34375 69.4257812 52.84375 69.4257812 52.84375 68.9257812 52.34375 68.9257812 52.34375 68.4257812 51.84375 68.4257812 51.84375 67.9257812 51.34375 67.9257812 51.34375 66.9257812 50.84375 66.9257812 50.84375 66.4257812 50.34375 66.4257812 50.34375 65.9257812 49.84375 65.9257812 49.84375 65.4257812 49.34375 65.4257812 49.34375 64.9257812 48.84375 64.9257812 48.84375 63.9257812 48.34375 63.9257812 48.34375 63.4257813 47.84375 63.4257813 47.84375 62.9257812 47.34375 62.9257812 47.34375 62.4257812 46.84375 62.4257812 46.84375 61.9257813 46.34375 61.9257813 46.34375 60.9257812 45.84375 60.9257812 45.84375 60.4257813 45.34375 60.4257813 45.34375 59.9257812 44.84375 59.9257812 44.84375 59.4257812 44.34375 59.4257812 44.34375 58.9257813 43.84375 58.9257813 43.84375 57.9257812 43.34375 57.9257812 43.34375 57.4257813 42.84375 57.4257813 42.84375 56.9257812 42.34375 56.9257812 42.34375 55.9257813 41.84375 55.9257813 41.84375 55.4257812 41.34375 55.4257812 41.34375 54.9257812 40.84375 54.9257812 40.84375 53.9257812 40.34375 53.9257812 40.34375 53.4257812 39.84375 53.4257812 39.84375 52.9257813 39.34375 52.9257813 39.34375 52.4257812 38.84375 52.4257812 38.84375 51.4257812 38.34375 51.4257812 38.34375 50.9257812 37.84375 50.9257812 37.84375 50.4257812 37.34375 50.4257812 37.34375 49.9257812 36.84375 49.9257812 36.84375 48.9257812 36.34375 48.9257812 36.34375 48.4257812"></polygon>
    </g>
</svg>