<?xml version="1.0" encoding="utf-8"?>
<!-- Generator: Adobe Illustrator 19.2.1, SVG Export Plug-In . SVG Version: 6.00 Build 0)  -->
<svg version="1.1" xmlns="http://www.w3.org/2000/svg" xmlns:xlink="http://www.w3.org/1999/xlink" x="0px" y="0px"
	 viewBox="0 0 250 250" style="enable-background:new 0 0 250 250;" xml:space="preserve">
<style type="text/css">
	.st0{fill:#FFFFFF;}
</style>
<g id="Calque_1">
	<path class="st0" d="M127.5,108.6c1.4,0,6.7-5.9,6.1-7.4c-0.5-1.4-19.6-10.6-19.6-10.6s-5.6-2.7-10.3-3.1
		c-4.7-0.4-18.3,1.3-18.3,1.3l-37.2,6.8c0,0-7.6,0.9-8.1,2.9c-0.5,2,0,21,7.4,33.3s10.4,17.5,26.4,18.2c4.3,0.2,6.8-10.9,7.9-15.3
		c0.9-3.5,1.6-7.4,1.2-10.6c-0.1-1-1.2-1.7-0.7-2.6c0.5-1,6.7-0.7,6,2.2c-0.1,0.4-0.5,1.5,0,3.4c1,4.1,7.7,24.5,19.3,30.9
		c11.6,6.4,35.3,6,40.3-1s6.4-22.1,6.8-26.4c4.9-5.1,37.7-13.9,37.7-13.9s3.4-0.8,5.5-3c2.1-2.3,5.3-6.3,6-6.2
		c0.8,2.9,0.3,11.1,2.3,12.8c2,1.8,2.4,0.3,3.4-3.5c1.4-5.3-0.4-5.7-1.5-8c-1.1-2.4,1-4.3-2.3-6.4c-3.3-2.1-5.5-0.4-8.7,0.8
		c-3.1,1.1-36.9,12.2-40.7,12.7c-3.8,0.5-24.5-1.4-33.9-2c-9.4-0.6-28.8-2.8-33.8-0.6c-2.3,1-3.6,0.5-4.7,0.3
		c-1.1-0.3-3.7-1.1-5.4-3.4c-2.1-2.9-18.3-6.7-18.3-6.7l20.5-3.5c0,0,5-0.6,7.2-1.4c2.1-0.8,10.7-6.2,15.3-5.7
		c4.6,0.5,12.8,4.4,18.3,10.8C127.2,110,127.5,108.6,127.5,108.6z"/>
</g>
<g id="Calque_2">
</g>
<g id="Calque_3">
</g>
<g id="Calque_4">
</g>
</svg>
