<?xml version="1.0" encoding="utf-8"?>
<!-- Generator: Adobe Illustrator 19.2.1, SVG Export Plug-In . SVG Version: 6.00 Build 0)  -->
<svg version="1.1" xmlns="http://www.w3.org/2000/svg" xmlns:xlink="http://www.w3.org/1999/xlink" x="0px" y="0px"
	 viewBox="0 0 250 250" style="enable-background:new 0 0 250 250;" xml:space="preserve">
<style type="text/css">
	.st0{fill:#FFFFFF;}
</style>
<g id="Calque_1">
	<path class="st0" d="M113.4,73.4c-6.2,6.2-16.1,6.2-22.3,0c-2.2-2.2-3.6-4.9-4.3-7.7c-0.7-2.3-1.8-4.5-3.6-6.3
		c-6.2-6.2-16.1-6.2-22.3,0c-6.2,6.2-6.2,16.1,0,22.3c1.8,1.8,3.9,3,6.1,3.8c2.8,0.6,5.6,2,7.8,4.2c6.2,6.2,6,16.5-0.2,22.7l-15,15
		c-1.6,1.6-1.6,4.1,0,5.7l16.6,16.4c3.1,3.1,8,3.1,11.1,0c1.1-1.1,1.8-2.5,2.1-3.9c0.8-2.2,2-4.3,3.8-6.1c6.2-6.2,16.1-6.2,22.3,0
		c6.2,6.2,6.2,16.1,0,22.3c-1.8,1.8-3.9,3-6.3,3.6c-1.4,0.3-2.8,1-3.9,2.1c-3.1,3.1-2.5,8.4,0.6,11.5l15,15c1.6,1.6,4.1,1.6,5.7,0
		l66-66c1.6-1.6,1.6-4.1,0-5.7l-15.4-15.4c-3.1-3.1-3.1-8,0-11.1c1.1-1.1,2.5-1.7,3.9-2c2.3-0.7,4.4-1.9,6.2-3.7
		c6.2-6.2,6.2-16.1,0-22.3c-6.2-6.2-16.1-6.2-22.3,0c-1.8,1.8-3,3.9-3.7,6.1c-0.3,1.4-1,2.8-2.1,3.9c-3.1,3.1-8,3.1-11.1,0l-1.6-1.6
		l-15-15c-1.6-1.6-4.1-1.6-5.7,0L113.4,73.4z"/>
</g>
<g id="Calque_2">
</g>
<g id="Calque_3">
</g>
<g id="Calque_4">
</g>
</svg>
