<?xml version="1.0" encoding="utf-8"?>
<!-- Generator: Adobe Illustrator 19.2.1, SVG Export Plug-In . SVG Version: 6.00 Build 0)  -->
<svg version="1.1" xmlns="http://www.w3.org/2000/svg" xmlns:xlink="http://www.w3.org/1999/xlink" x="0px" y="0px"
	 viewBox="0 0 250 250" style="enable-background:new 0 0 250 250;" xml:space="preserve">
<style type="text/css">
	.st0{fill:#FFFFFF;}
</style>
<g id="Calque_1">
</g>
<g id="Calque_2">
	<g>
		<path class="st0" d="M125,80.7c3,0,5.5-0.3,7.2-0.6c0.6-0.1,1.4-0.1,1.6,0.1c0.2,0.2,0.3,0.4,0.3,1c0,4.8-0.1,13.2,0.6,22.8
			c2.4,35.7,8.2,94.1,8.8,99.5c0,0.3,0,0.3,0,0.4c0,0.1-0.2,0.3-0.2,0.3l-18.2,23.1c0,0-0.1,0.1-0.1,0.1c0,0-0.1-0.1-0.1-0.1
			l-18.2-23.2c0,0-0.2-0.2-0.2-0.3c0-0.1,0-0.1,0-0.4c0.5-5.5,6.4-63.9,8.8-99.5c0.7-9.6,0.6-18,0.6-22.8c0-0.6,0.1-0.8,0.3-1
			c0.3-0.2,1-0.2,1.6-0.1C119.5,80.4,122,80.7,125,80.7z"/>
	</g>
	<g>
		<path class="st0" d="M125,52.1c-6.7,0-13.4,1.3-13.4,3.8c0,3.2,1.9,17.7,3.9,18.2c0.6,0.2,3.7,1.3,9.5,1.3c6.3,0,8.6-1,9.6-1.3
			c1.9-0.6,3.8-14,3.8-18.2C138.4,53.4,131.7,52.1,125,52.1z"/>
	</g>
	<g>
		<path class="st0" d="M104.4,56.8c2.7-5.3,4-5.2,4-6.6c0-1.3-2.9-3.2-3.6-3.6C90.9,37,88.5,22.5,88.5,22.5
			c-1.5,0.7-7.4,19.8-7.4,21.7c0,10,17.1,33.3,17.1,33.3S101.6,62.1,104.4,56.8z"/>
	</g>
	<g>
		<path class="st0" d="M145.6,56.8c-2.7-5.3-4-5.2-4-6.6c0-1.3,2.9-3.2,3.6-3.6c13.9-9.5,16.3-24.1,16.3-24.1
			c1.5,0.7,7.4,19.8,7.4,21.7c0,10-17.1,33.3-17.1,33.3S148.4,62.1,145.6,56.8z"/>
	</g>
</g>
<g id="Calque_3">
</g>
<g id="Calque_4">
</g>
</svg>
