<?xml version="1.0" encoding="utf-8"?>
<!-- Generator: Adobe Illustrator 19.2.1, SVG Export Plug-In . SVG Version: 6.00 Build 0)  -->
<svg version="1.1" xmlns="http://www.w3.org/2000/svg" xmlns:xlink="http://www.w3.org/1999/xlink" x="0px" y="0px"
	 viewBox="0 0 250 250" style="enable-background:new 0 0 250 250;" xml:space="preserve">
<style type="text/css">
	.st0{fill:#FFFFFF;}
</style>
<g id="Calque_1">
</g>
<g id="Calque_2">
</g>
<g id="Calque_3">
	<g>
		<path class="st0" d="M120,130H99.6v21.5h-7.3V130H72.1v-6.7h20.3v-21.3h7.3v21.3H120V130z"/>
		<path class="st0" d="M177.5,149v11.2H136V149h14v-36.7c0-0.9,0-1.9,0-2.8c0-1,0.1-1.9,0.2-2.9l-8.3,6.9c-0.7,0.6-1.5,0.9-2.2,1
			c-0.7,0.1-1.4,0.1-2,0c-0.6-0.1-1.2-0.3-1.7-0.6c-0.5-0.3-0.9-0.6-1.1-1l-4.9-6.5l22.7-19h12.8V149H177.5z"/>
	</g>
</g>
<g id="Calque_4">
</g>
</svg>
